<?xml version="1.0" encoding="UTF-8"?>
<!DOCTYPE svg PUBLIC "-//W3C//DTD SVG 1.1//EN" "http://www.w3.org/Graphics/SVG/1.1/DTD/svg11.dtd">
<!-- Creator: CorelDRAW -->
<svg xmlns="http://www.w3.org/2000/svg" xml:space="preserve" width="86.614mm" height="86.614mm" version="1.1" style="shape-rendering:geometricPrecision; text-rendering:geometricPrecision; image-rendering:optimizeQuality; fill-rule:evenodd; clip-rule:evenodd"
viewBox="0 0 1157.37 1157.37"
 xmlns:xlink="http://www.w3.org/1999/xlink"
 xmlns:xodm="http://www.corel.com/coreldraw/odm/2003">
 <defs>
  <style type="text/css">
   <![CDATA[
    .fil0 {fill:#00140A}
    .fil1 {fill:url(#id0)}
    .fil2 {fill:url(#id1)}
    .fil6 {fill:url(#id2)}
    .fil5 {fill:url(#id3)}
    .fil3 {fill:url(#id4)}
    .fil4 {fill:url(#id5)}
   ]]>
  </style>
  <linearGradient id="id0" gradientUnits="userSpaceOnUse" x1="357.99" y1="949.82" x2="358.02" y2="244.12">
   <stop offset="0" style="stop-opacity:1; stop-color:white"/>
   <stop offset="1" style="stop-opacity:1; stop-color:gray"/>
  </linearGradient>
  <linearGradient id="id1" gradientUnits="userSpaceOnUse" xlink:href="#id0" x1="799.36" y1="949.82" x2="799.38" y2="244.12">
  </linearGradient>
  <linearGradient id="id2" gradientUnits="userSpaceOnUse" xlink:href="#id0" x1="787.79" y1="400.37" x2="564.92" y2="207.21">
  </linearGradient>
  <linearGradient id="id3" gradientUnits="userSpaceOnUse" xlink:href="#id0" x1="346.43" y1="400.37" x2="123.55" y2="207.22">
  </linearGradient>
  <linearGradient id="id4" gradientUnits="userSpaceOnUse" xlink:href="#id0" x1="609.54" y1="455.95" x2="609.55" y2="927.95">
  </linearGradient>
  <linearGradient id="id5" gradientUnits="userSpaceOnUse" xlink:href="#id0" x1="609.54" y1="443.37" x2="609.55" y2="768.99">
  </linearGradient>
 </defs>
 <g id="Layer_x0020_1">
  <metadata id="CorelCorpID_0Corel-Layer"/>
  <g id="_1401575075872">
   <rect class="fil0" x="-0" y="-0" width="1157.37" height="1157.37" rx="286.49" ry="286.49"/>
   <path class="fil1" d="M267.75 415.37l90.25 0c49.64,0 90.25,40.61 90.25,90.25l0 196.97c-31.75,-6.58 -63.01,-15.58 -93.49,-26.93 28.79,19.37 60.51,35.92 93.49,49.03l0 135.91c0,49.64 -40.61,90.25 -90.25,90.25l-90.25 0 0 -535.48z"/>
   <path class="fil2" d="M799.37 415.37l90.25 0 0 535.48 -90.25 0c-49.64,0 -90.25,-40.61 -90.25,-90.25l0 -135.91c32.99,-13.1 64.7,-29.65 93.49,-49.03 -30.48,11.35 -61.74,20.35 -93.49,26.93l0 -196.97c0,-49.64 40.61,-90.25 90.25,-90.25z"/>
   <path class="fil3" d="M889.62 635.63c-92.39,51.12 -198.41,80.3 -310.93,80.3l-0.01 0c-112.52,0 -218.55,-29.18 -310.93,-80.3l0 -220.26c82.64,74.5 191.81,120.05 310.94,120.05 119.12,0 228.29,-45.55 310.93,-120.05l0 220.26z"/>
   <path class="fil4" d="M267.75 542.42l0 -127.05c82.64,74.5 191.81,120.05 310.94,120.05 119.12,0 228.29,-45.55 310.93,-120.05l0 127.05c-92.39,51.12 -198.41,80.3 -310.93,80.3l-0.01 0c-112.52,0 -218.55,-29.18 -310.93,-80.3z"/>
   <rect class="fil5" x="267.75" y="206.53" width="180.51" height="180.51" rx="90.25" ry="90.25"/>
   <rect class="fil6" x="709.11" y="206.53" width="180.51" height="180.51" rx="90.25" ry="90.25"/>
  </g>
 </g>
</svg>
